<?xml version="1.0" encoding="UTF-8" standalone="no"?>
<!-- Created with Inkscape (http://www.inkscape.org/) -->

<svg
   xmlns:dc="http://purl.org/dc/elements/1.1/"
   xmlns:cc="http://creativecommons.org/ns#"
   xmlns:rdf="http://www.w3.org/1999/02/22-rdf-syntax-ns#"
   xmlns:svg="http://www.w3.org/2000/svg"
   xmlns="http://www.w3.org/2000/svg"
   xmlns:sodipodi="http://sodipodi.sourceforge.net/DTD/sodipodi-0.dtd"
   xmlns:inkscape="http://www.inkscape.org/namespaces/inkscape"
   width="210mm"
   height="297mm"
   viewBox="0 0 210 297"
   version="1.1"
   id="svg8"
   inkscape:version="0.92.1 r15371"
   sodipodi:docname="logoBC.svg">
  <defs
     id="defs2" />
  <sodipodi:namedview
     id="base"
     pagecolor="#ffffff"
     bordercolor="#666666"
     borderopacity="1.0"
     inkscape:pageopacity="0.0"
     inkscape:pageshadow="2"
     inkscape:zoom="1.4"
     inkscape:cx="573.49073"
     inkscape:cy="808.20618"
     inkscape:document-units="mm"
     inkscape:current-layer="layer1"
     showgrid="false"
     inkscape:window-width="2560"
     inkscape:window-height="1017"
     inkscape:window-x="-8"
     inkscape:window-y="-8"
     inkscape:window-maximized="1" />
  <metadata
     id="metadata5">
    <rdf:RDF>
      <cc:Work
         rdf:about="">
        <dc:format>image/svg+xml</dc:format>
        <dc:type
           rdf:resource="http://purl.org/dc/dcmitype/StillImage" />
        <dc:title></dc:title>
      </cc:Work>
    </rdf:RDF>
  </metadata>
  <g
     inkscape:label="Camada 1"
     inkscape:groupmode="layer"
     id="layer1">
    <g
       id="g4577">
      <g
         id="text4537"
         style="font-style:normal;font-weight:normal;font-size:81.98945618px;line-height:1.25;font-family:sans-serif;letter-spacing:0px;word-spacing:0px;fill:#000000;fill-opacity:1;stroke:none;stroke-width:2.04973626"
         transform="matrix(1.30808,0,0,1.19794,-2.296366,-50.752639)"
         aria-label="c">
        <path
           inkscape:connector-curvature="0"
           id="path4539"
           d="m 93.403677,128.63664 c -2.508792,1.20102 -4.897482,2.13515 -7.16607,2.80238 -2.241899,0.66723 -4.63059,1.00085 -7.166071,1.00085 -3.229403,0 -6.191912,-0.46706 -8.887529,-1.40119 -2.695617,-0.96081 -5.004239,-2.40203 -6.925867,-4.32366 -1.948317,-1.92163 -3.456261,-4.35036 -4.523832,-7.28618 -1.067571,-2.93582 -1.601357,-6.36539 -1.601357,-10.28871 0,-7.31286 2.001696,-13.051048 6.005087,-17.214578 4.030081,-4.16353 9.341247,-6.2453 15.933498,-6.2453 2.562171,0 5.070963,0.36031 7.526376,1.08092 2.482103,0.72061 4.750691,1.60136 6.805765,2.64224 v 8.36709 h -0.400339 c -2.295278,-1.78819 -4.670624,-3.16269 -7.126037,-4.1235 -2.428724,-0.96081 -4.804069,-1.44122 -7.126036,-1.44122 -16.078067,8.051838 -9.595954,30.743438 0,33.708558 1.521289,0 3.069267,-0.20017 4.643934,-0.60051 1.574667,-0.40034 2.989199,-0.92078 4.243595,-1.56132 1.09426,-0.56048 2.121797,-1.14765 3.082611,-1.7615 0.960814,-0.64054 1.721458,-1.18767 2.281933,-1.64139 h 0.400339 z"
           style="fill:#454445;fill-opacity:1;stroke-width:2.04973626" />
      </g>
      <g
         id="text12"
         style="font-style:normal;font-weight:normal;font-size:100.09597778px;line-height:1.25;font-family:sans-serif;letter-spacing:0px;word-spacing:0px;fill:#00585e;fill-opacity:1;stroke:none;stroke-width:2.50239944"
         transform="matrix(1.1042731,0,0,0.90557308,6.2808339,-0.66817382)"
         aria-label="B">
        <path
           sodipodi:nodetypes="ssccsccssccsccccsssccccscscssscccccss"
           inkscape:connector-curvature="0"
           id="path22"
           style="fill:#00585e;fill-opacity:1;stroke-width:2.50239944"
           d="m 86.628203,80.194334 c 0,3.616749 -0.68425,6.809915 -2.052749,9.579498 -1.3685,2.769583 -3.209458,5.050415 -5.522874,6.842498 -2.736999,2.150499 -5.750957,3.68192 -9.041873,4.59425 -3.258333,0.91233 -7.412707,1.3685 -12.463122,1.3685 H 31.741591 V 29.80422 h 21.55387 c 5.311082,0 9.286248,0.1955 11.925497,0.5865 2.639249,0.391 5.164457,1.205583 7.575624,2.443749 2.671833,1.401083 4.61054,3.209458 5.816123,5.425124 1.205583,2.183083 1.808375,4.80604 1.808375,7.868873 0,3.453833 -0.87975,6.402624 -2.63925,8.846373 -1.759499,2.411166 -4.105499,4.349874 -7.037998,5.816124 v 0.391 c 4.920082,1.010083 8.797498,3.176874 11.632247,6.500373 2.834749,3.290916 4.252124,7.461582 4.252124,12.511998 z M 70.352832,47.399216 c 0,-1.759499 -0.29325,-3.242041 -0.87975,-4.447624 -0.5865,-1.205583 -1.531416,-2.183083 -2.834749,-2.932499 -1.531417,-0.87975 -3.388666,-1.417375 -5.571749,-1.612875 -2.183083,-0.228083 -4.887499,-0.342125 -8.113248,-0.342125 -3.533615,7.259684 -7.567673,14.107276 -11.534498,21.016245 h 12.511998 c 3.030249,0 5.441415,-0.146625 7.233498,-0.439875 1.792083,-0.325833 3.453832,-0.977499 4.985249,-1.954999 1.531416,-0.9775 2.606666,-2.231958 3.225749,-3.763374 0.651667,-1.564 0.9775,-3.404958 0.9775,-5.522874 z m 6.207124,33.186118 c 0,-2.932499 -0.439875,-5.262207 -1.319625,-6.989124 -0.87975,-1.726916 -2.476333,-3.193166 -4.789749,-4.398749 -4.528897,-2.006919 -5.919198,-1.358012 -10.201141,-1.364721 -5.14224,8.96257 -6.533402,10.647117 -16.16825,26.486466 7.657297,-0.22505 13.224269,0.478595 20.553267,-0.635375 2.704416,-0.456167 4.920082,-1.27075 6.646999,-2.44375 1.824666,-1.270749 3.160582,-2.720707 4.007749,-4.349874 0.847167,-1.629166 1.27075,-3.73079 1.27075,-6.304873 z" />
      </g>
      <path
         sodipodi:nodetypes="ccccc"
         inkscape:connector-curvature="0"
         id="path4553"
         d="m 72.830945,84.554133 c 0.222724,2.694967 0.979988,5.40664 1.770659,7.500251 5.545843,0.35636 10.657373,-1.609185 15.267773,-3.123712 -0.991124,-2.884284 -1.581344,-6.002429 -1.870885,-9.153983 -3.274052,3.0736 -8.886713,4.710626 -15.167547,4.777444 z"
         style="fill:#454445;fill-opacity:1;stroke:#454445;stroke-width:0.26458332px;stroke-linecap:butt;stroke-linejoin:miter;stroke-opacity:1" />
    </g>
  </g>
</svg>
